<?xml version="1.0" encoding="utf-8"?>
<!-- Generator: Adobe Illustrator 23.0.1, SVG Export Plug-In . SVG Version: 6.00 Build 0)  -->
<svg version="1.1" id="Layer_1" xmlns="http://www.w3.org/2000/svg" xmlns:xlink="http://www.w3.org/1999/xlink" x="0px" y="0px"
	 viewBox="0 0 1020 192" width="1020" height="192" style="enable-background:new 0 0 1020 192;" xml:space="preserve">
<style type="text/css">
	.st0{fill-rule:evenodd;clip-rule:evenodd;fill:url(#SVGID_1_);}
</style>
<linearGradient id="SVGID_1_" gradientUnits="userSpaceOnUse" x1="10.1975" y1="595.9539" x2="10.8779" y2="595.8235" gradientTransform="matrix(1206 0 0 -717 -12122 427348)">
	<stop  offset="0" style="stop-color:#37003C"/>
	<stop  offset="1" style="stop-color:#FC2C80"/>
</linearGradient>
<path class="st0" d="M311,0C391.6,12.7,475,18.9,555,18.9l-78.9,79.3c25.5,1.4,30.9,0.7,56.8,0.7c171,0,336.3-32,487.1-90.3V0H311z
	 M958.6,192h61.4v-23C999.9,177.1,979.4,184.8,958.6,192z M322,153.3l57.8-58.1C249.7,90.7,115,67.7,0,22v103.2
	c49.6,24.9,102.6,47.7,156.9,66.8h578.7l27.8-27.9c-70.8,13.2-121.5,15.5-196.1,15.5C481.1,179.6,403,170.8,322,153.3z"/>
</svg>
